#!OML:ASF E:\Style3\Style3.ASF
:FULLY-SPECIFIED
:DEGREES
3626
root 0.436113 17.7975 0.323155 -167.594 76.0586 -181.573
lowerback -9.71227 -0.490772 -2.08015
upperback -9.65123 0.0558868 -0.153114
thorax -4.64107 0.399124 0.98706
lowerneck -7.53996 3.03643 -2.79089
upperneck 22.3046 3.40081 8.95846
head 7.87805 2.51141 3.78905
rclavicle 3.72721e-015 0
rhumerus 64.178 -35.3671 -29.9205
rradius 120.293
rwrist -31.9622
rhand -25.096 12.64
rfingers 7.12502
rthumb 1.41889 -17.3351
lclavicle 3.72721e-015 0
lhumerus 68.7393 20.0802 40.753
lradius 117.372
lwrist 94.1741
lhand -9.17274 31.8312
lfingers 7.12502
lthumb 16.7801 61.1261
rfemur -12.6695 7.95873 16.1378
rtibia 17.3175
rfoot -16.1836 -28.8532
rtoes -7.50626
lfemur -8.27325 -25.2674 -11.3416
ltibia -2.70347e-014
lfoot -7.25165 16.6002
ltoes -21.3905
3627
root 0.438148 17.797 0.325179 -167.52 76.0751 -181.469
lowerback -9.6994 -0.498511 -2.09763
upperback -9.65422 0.0466008 -0.132249
thorax -4.6512 0.396266 1.01801
lowerneck -7.52138 2.99606 -2.84537
upperneck 22.3905 3.3586 8.93534
head 7.90526 2.48734 3.79041
rclavicle 2.19409e-014 1.98785e-016
rhumerus 64.1959 -35.3458 -29.8877
rradius 120.325
rwrist -32.4604
rhand -25.2309 12.5171
rfingers 7.12502
rthumb 1.28855 -17.4587
lclavicle 2.19409e-014 1.98785e-016
lhumerus 68.7064 20.0832 40.5276
lradius 117.39
lwrist 94.1411
lhand -9.44511 32.2946
lfingers 7.12502
lthumb 16.5179 61.6115
rfemur -12.6299 8.03802 16.1716
rtibia 17.2932
rfoot -16.0696 -28.9393
rtoes -7.54868
lfemur -8.22788 -25.2478 -11.3257
ltibia -1.27222e-014
lfoot -7.27112 16.5977
ltoes -21.3811
3628
root 0.440933 17.7973 0.32673 -167.531 76.0905 -181.465
lowerback -9.73965 -0.490413 -2.1386
upperback -9.63691 0.0599517 -0.144328
thorax -4.61104 0.404097 1.0294
lowerneck -7.51999 2.93872 -2.83883
upperneck 22.4427 3.2844 8.90501
head 7.92826 2.45153 3.77558
rclavicle -3.50358e-015 -1.59028e-015
rhumerus 64.1321 -35.3541 -29.782
rradius 120.332
rwrist -32.794
rhand -25.5049 12.2394
rfingers 7.12502
rthumb 1.02392 -17.7379
lclavicle -3.50358e-015 -1.59028e-015
lhumerus 68.7946 20.0746 40.3498
lradius 117.417
lwrist 94.1424
lhand -9.63894 32.7907
lfingers 7.12502
lthumb 16.3313 62.123
rfemur -12.6022 8.05764 16.1807
rtibia 17.265
rfoot -15.9577 -28.9823
rtoes -7.61214
lfemur -8.19297 -25.2353 -11.3389
ltibia 9.54166e-015
lfoot -7.21015 16.63
ltoes -21.7456
3629
root 0.444997 17.7965 0.328248 -167.299 76.0689 -181.22
lowerback -9.78003 -0.474152 -2.10762
upperback -9.62717 0.0809097 -0.150936
thorax -4.57892 0.412249 1.00658
lowerneck -7.58481 2.87997 -2.82867
upperneck 22.5314 3.20135 8.90123
head 7.97571 2.4161 3.77171
rclavicle 3.30728e-014 1.07344e-014
rhumerus 64.0501 -35.405 -29.6722
rradius 120.344
rwrist -33.1341
rhand -25.6592 11.8398
rfingers 7.12502
rthumb 0.874912 -18.1382
lclavicle 3.30728e-014 1.07344e-014
lhumerus 68.8523 19.9954 40.1036
lradius 117.45
lwrist 94.0274
lhand -10.0687 32.7877
lfingers 7.12502
lthumb 15.9175 62.1536
rfemur -12.5764 8.01657 16.2624
rtibia 17.256
rfoot -15.9656 -28.962
rtoes -7.792
lfemur -8.17322 -25.242 -11.2704
ltibia 7.95139e-015
lfoot -7.26585 16.6307
ltoes -21.704
3630
root 0.449219 17.7961 0.330138 -167.212 76.0539 -181.104
lowerback -9.77806 -0.469539 -2.11687
upperback -9.63517 0.0881647 -0.16054
thorax -4.58887 0.416664 1.00205
lowerneck -7.60236 2.8275 -2.80704
upperneck 22.6065 3.13203 8.86847
head 8.00993 2.38465 3.75529
rclavicle 1.65985e-014 2.98177e-015
rhumerus 63.9346 -35.4164 -29.5694
rradius 120.415
rwrist -33.3575
rhand -25.6964 11.5581
rfingers 7.12502
rthumb 0.838931 -18.42
lclavicle 1.65985e-014 2.98177e-015
lhumerus 68.8927 19.8911 39.8472
lradius 117.483
lwrist 93.8746
lhand -10.6191 32.8765
lfingers 7.12502
lthumb 15.3874 62.2839
rfemur -12.5329 8.05601 16.3102
rtibia 17.2607
rfoot -16.0363 -28.976
rtoes -7.90469
lfemur -8.13932 -25.2524 -11.2435
ltibia -6.36111e-015
lfoot -7.26615 16.6336
ltoes -21.6799
3631
root 0.4521 17.7962 0.331289 -167.411 76.0739 -181.295
lowerback -9.77996 -0.474376 -2.21383
upperback -9.63702 0.0876833 -0.165442
thorax -4.5903 0.42209 1.05116
lowerneck -7.53073 2.80552 -2.79661
upperneck 22.528 3.10994 8.82057
head 7.97329 2.36717 3.73036
rclavicle -8.44835e-015 4.77083e-015
rhumerus 63.896 -35.417 -29.4634
rradius 120.441
rwrist -33.5551
rhand -25.8006 11.2718
rfingers 7.12502
rthumb 0.738285 -18.7067
lclavicle -8.44835e-015 4.77083e-015
lhumerus 68.9199 19.8283 39.6369
lradius 117.487
lwrist 93.7275
lhand -11.1199 32.9545
lfingers 7.12502
lthumb 14.905 62.3983
rfemur -12.5173 8.07101 16.2632
rtibia 17.269
rfoot -16.0757 -28.9801
rtoes -8.03403
lfemur -8.11255 -25.2462 -11.3051
ltibia 1.74931e-014
lfoot -7.2794 16.6553
ltoes -21.8454
3632
root 0.452674 17.7952 0.331898 -167.454 76.0659 -181.327
lowerback -9.77467 -0.479471 -2.26015
upperback -9.6344 0.0832106 -0.168418
thorax -4.59046 0.42233 1.07373
lowerneck -7.48163 2.78753 -2.74911
upperneck 22.4815 3.08714 8.77611
head 7.95234 2.35415 3.70232
rclavicle 7.92654e-015 1.0138e-014
rhumerus 63.8876 -35.4063 -29.4384
rradius 120.475
rwrist -33.7801
rhand -25.8686 11.06
rfingers 7.12502
rthumb 0.672648 -18.9187
lclavicle 7.92654e-015 1.0138e-014
lhumerus 68.9491 19.767 39.343
lradius 117.448
lwrist 93.5091
lhand -11.7483 32.7361
lfingers 7.12502
lthumb 14.2995 62.2237
rfemur -12.5103 8.02266 16.2642
rtibia 17.2817
rfoot -16.0721 -28.9449
rtoes -7.97811
lfemur -8.098 -25.2569 -11.3144
ltibia -2.06736e-014
lfoot -7.27945 16.6569
ltoes -21.7992
3633
root 0.454405 17.7956 0.332681 -167.354 76.0306 -181.221
lowerback -9.79987 -0.504485 -2.26262
upperback -9.64133 0.0521346 -0.16162
thorax -4.58299 0.40765 1.08048
lowerneck -7.4344 2.76211 -2.80605
upperneck 22.5131 3.0519 8.8277
head 7.95405 2.33895 3.72662
rclavicle 5.04416e-015 1.17283e-014
rhumerus 63.8673 -35.3401 -29.4902
rradius 120.564
rwrist -34.0619
rhand -25.8286 10.7458
rfingers 7.12502
rthumb 0.711267 -19.2328
lclavicle 5.04416e-015 1.17283e-014
lhumerus 68.9119 19.7005 39.0231
lradius 117.459
lwrist 93.3502
lhand -12.2266 32.5484
lfingers 7.12502
lthumb 13.8386 62.0681
rfemur -12.5124 7.98047 16.3074
rtibia 17.3147
rfoot -15.9057 -28.9746
rtoes -8.32881
lfemur -8.0981 -25.2836 -11.2711
ltibia 1.90833e-014
lfoot -7.30295 16.6383
ltoes -21.5164
3634
root 0.455046 17.7953 0.33337 -167.193 75.9991 -181.063
lowerback -9.81691 -0.521576 -2.25134
upperback -9.65637 0.0311556 -0.152321
thorax -4.58903 0.397808 1.08258
lowerneck -7.38476 2.7364 -2.80403
upperneck 22.544 3.0152 8.84008
head 7.95744 2.32413 3.72759
rclavicle -2.67365e-014 1.78906e-015
rhumerus 63.8835 -35.337 -29.6036
rradius 120.644
rwrist -34.6254
rhand -25.6617 10.5655
rfingers 7.12502
rthumb 0.872525 -19.4125
lclavicle -2.67365e-014 1.78906e-015
lhumerus 68.941 19.6352 38.8545
lradius 117.399
lwrist 93.3763
lhand -12.4348 32.2022
lfingers 7.12502
lthumb 13.638 61.7354
rfemur -12.5233 7.92273 16.3603
rtibia 17.3311
rfoot -15.6099 -28.9808
rtoes -8.71432
lfemur -8.11814 -25.3025 -11.213
ltibia -1.59028e-014
lfoot -7.26967 16.6386
ltoes -21.3221
